# xmcd
#
# Track frame offsets:
#	150
#	22517
#	44350
#	60330
#	82395
#	104772
#	129037
#	147750
#	165282
#	184660
#
# Disc length: 2661 seconds
#
# Revision: 0
# Processed by: cddbd v1.5.1PL0 Copyright (c) Steve Scherf et al.
# Submitted via: EasyCDDAExtractor 8.2.1.1
#
DISCID=750a630a
DTITLE=ORHAN GENCEBAY - MUSALLA TASI
DYEAR=1969
DGENRE=Alternative
TTITLE0=MEYHANECI SIRDASIM
TTITLE1=VICDAN AZABI
TTITLE2=EFKAR BASTI GÖNLÜMÜ
TTITLE3=GÖNÜL FIRTINASI
TTITLE4=BEN SEVDIM DE NE OLDU ?
TTITLE5=KABAHAT SENI SEVENDE
TTITLE6=HOR GÖRME GARIBI
TTITLE7=SEVENLER MESUT OLMAZ
TTITLE8=BASA GELEN CEKILIRMIS
TTITLE9=HER CEFA BENI BULDU
EXTD=
EXTT0=
EXTT1=
EXTT2=
EXTT3=
EXTT4=
EXTT5=
EXTT6=
EXTT7=
EXTT8=
EXTT9=
PLAYORDER=
